
<svg viewBox="0 0 517 441">
    <g id="Page-1" stroke="none" stroke-width="1" fill="none" fill-rule="evenodd">
        <g id="Index" transform="translate(-435.000000, -160.000000)" fill="#FF888A" fill-rule="nonzero">
            <g id="blob-shape-(1)" transform="translate(435.000000, 160.000000)">
                <path d="M431.562729,10.5160428 C480.022637,29.8940184 516.538202,79.9347907 516.993225,131.457408 C517.562003,183.094014 482.183995,236.212464 461.594221,282.605618 C440.890692,328.884783 434.975398,368.324663 413.361824,395.225852 C391.74825,422.127042 354.550151,436.60353 318.603365,440.137161 C282.656578,443.670791 248.074859,436.375554 224.299927,417.795495 C200.524996,399.101448 187.443096,369.008591 144.329703,348.718711 C101.21631,328.428831 28.0714245,317.827938 6.91287291,288.760975 C-14.1319231,259.694011 16.9233704,212.274965 45.8173065,170.099371 C74.7112426,127.809789 101.443821,90.8776475 137.049341,65.5722911 C172.768616,40.2669347 217.474588,26.8163399 270.0297,14.505626 C322.698568,2.19491208 383.10282,-8.86193282 431.562729,10.5160428 Z" id="Path"></path>
            </g>
        </g>
    </g>
</svg>