<?xml version="1.0" encoding="UTF-8"?>
<svg width="1099px" height="463px" viewBox="0 0 1099 463" version="1.1" xmlns="http://www.w3.org/2000/svg" xmlns:xlink="http://www.w3.org/1999/xlink">
    <!-- Generator: Sketch 60 (88103) - https://sketch.com -->
    <title>Artboard</title>
    <desc>Created with Sketch.</desc>
    <g id="Artboard" stroke="none" stroke-width="1" fill="none" fill-opacity="0.2" fill-rule="evenodd">
        <path d="M237.134102,70.9551588 C237.134102,51.2158835 221.074144,35.1372222 201.351945,35.1372222 C194.60528,35.1372222 188.14458,37.0081766 182.544129,40.5050232 C179.071356,20.1212819 160.409465,4.86145769 138.557236,6.06673874 C117.762962,7.10118328 101.299356,22.3280183 98.6021024,41.8705372 C94.8433636,40.5344778 90.9657668,39.8546663 87.0305062,39.8546663 C67.3024235,39.8546663 51.2471722,55.9250803 51.2471722,75.679672 C51.2471722,76.0991051 51.267178,76.5161818 51.3060128,76.9697822 C41.306638,79.6949192 26.9648255,85.4821533 27,105.937764 C27.0083676,121.137501 39.6355644,134.184697 56.8158483,135 L236.492739,134.159956 C249.749531,129.746483 259.708894,116.023009 258.960441,101.187331 C258.334377,88.5383596 249.512992,77.8781612 236.984647,74.1020852 C237.083499,73.0499679 237.134102,72.000207 237.134102,70.9551588 Z" id="Fill-99" fill="#F8F8F8"></path>
        <path d="M396.161301,183.225815 C396.161301,173.432686 388.200545,165.455676 378.424455,165.455676 C375.080203,165.455676 371.877701,166.383902 369.101616,168.118771 C367.380198,158.005907 358.129692,150.435142 347.297768,151.033111 C336.990261,151.546323 328.829422,159.100722 327.492421,168.796235 C325.629254,168.133384 323.707169,167.796114 321.756501,167.796114 C311.977494,167.796114 304.019072,175.769032 304.019072,185.56976 C304.019072,185.777851 304.028989,185.984772 304.048239,186.209814 C299.091652,187.56182 291.982564,190.433006 292,200.581526 C292.004148,208.122481 298.263319,214.595509 306.779408,215 L395.843384,214.583234 C402.414638,212.393604 407.351391,205.585059 406.980391,198.224722 C406.670058,191.949264 402.297388,186.660483 396.087217,184.787081 C396.136217,184.2651 396.161301,183.744289 396.161301,183.225815 Z" id="Fill-99" fill="#F8F8F8"></path>
        <path d="M969.297069,107.806968 C969.297069,94.494433 958.498131,83.6506847 945.236653,83.6506847 C940.700102,83.6506847 936.355838,84.9124912 932.590018,87.2708296 C930.254877,73.5236552 917.706365,63.2321459 903.012624,64.0450098 C889.030267,64.7426585 877.959912,75.0119193 876.146241,88.1917576 C873.618813,87.2906943 871.011464,86.8322168 868.36534,86.8322168 C855.099905,86.8322168 844.304133,97.670403 844.304133,110.993267 C844.304133,111.276141 844.317585,111.557425 844.343698,111.863342 C837.619981,113.701225 827.976348,117.604243 828,131.399887 C828.005626,141.650873 836.496328,150.450145 848.048588,151 L968.865808,150.433458 C977.779857,147.45693 984.47667,138.201564 983.9734,128.196107 C983.552426,119.665405 977.620805,112.475969 969.196573,109.929313 C969.263043,109.219746 969.297069,108.511768 969.297069,107.806968 Z" id="Fill-99" fill="#F8F8F8"></path>
        <path d="M693.134102,134.955159 C693.134102,115.215883 677.074144,99.1372222 657.351945,99.1372222 C650.60528,99.1372222 644.14458,101.008177 638.544129,104.505023 C635.071356,84.1212819 616.409465,68.8614577 594.557236,70.0667387 C573.762962,71.1011833 557.299356,86.3280183 554.602102,105.870537 C550.843364,104.534478 546.965767,103.854666 543.030506,103.854666 C523.302423,103.854666 507.247172,119.92508 507.247172,139.679672 C507.247172,140.099105 507.267178,140.516182 507.306013,140.969782 C497.306638,143.694919 482.964825,149.482153 483,169.937764 C483.008368,185.137501 495.635564,198.184697 512.815848,199 L692.492739,198.159956 C705.749531,193.746483 715.708894,180.023009 714.960441,165.187331 C714.334377,152.53836 705.512992,141.878161 692.984647,138.102085 C693.083499,137.049968 693.134102,136.000207 693.134102,134.955159 Z" id="Fill-99" fill="#F8F8F8"></path>
    </g>
</svg>