<?xml version="1.0" encoding="UTF-8"?>
<svg width="583px" height="508px" viewBox="0 0 583 508" version="1.1" xmlns="http://www.w3.org/2000/svg" xmlns:xlink="http://www.w3.org/1999/xlink">
    <!-- Generator: Sketch 61.2 (89653) - https://sketch.com -->
    <title>Tile</title>
    <desc>Created with Sketch.</desc>
    <g id="Website-Prototype" stroke="none" stroke-width="1" fill="none" fill-rule="evenodd">
        <g id="Index" transform="translate(-652.000000, -134.000000)">
            <g id="Tile" transform="translate(938.500000, 420.000000) rotate(-45.000000) translate(-938.500000, -420.000000) translate(713.000000, 225.000000)">
                <path d="M208.754094,147.020076 L426.254094,147.020076 C439.785071,147.020076 450.754094,157.989099 450.754094,171.520076 L450.754094,389.020076 L450.754094,389.020076 L233.254094,389.020076 C219.723118,389.020076 208.754094,378.051052 208.754094,364.520076 L208.754094,147.020076 L208.754094,147.020076 Z" id="Rectangle" fill="#FF6296"></path>
                <path d="M208.4386,246.518143 C232.776701,256.122562 256.690559,256.122562 280.180174,246.518143 C294.729896,240.569062 310.108205,238.592055 326.315103,240.587121 L326.315103,240.587121 C339.744709,242.240303 349.291387,254.467318 347.638205,267.896924 C347.626757,267.989922 347.614775,268.082853 347.602261,268.175714 C343.602906,297.852424 344.779062,318.330922 351.130729,329.611209 C360.874557,346.915827 360.874557,366.657281 351.130729,388.83557 L232.9386,388.83557 C219.407624,388.83557 208.4386,377.866546 208.4386,364.33557 L208.4386,246.518143 L208.4386,246.518143 Z" id="Rectangle" fill="#F3F7FF"></path>
                <path d="M209.63961,284.523154 C227.163043,291.549205 244.381021,291.549205 261.293543,284.523154 C268.592921,281.490738 276.181946,279.869087 284.060618,279.658202 L284.060618,279.658202 C297.58675,279.296154 308.845345,289.967753 309.207392,303.493885 C309.236044,304.564329 309.194487,305.635499 309.082986,306.700506 C307.165452,325.016002 308.263771,337.885619 312.377943,345.309356 C319.393499,357.968439 319.393499,372.410174 312.377943,388.63456 L234.13961,388.63456 C220.608634,388.63456 209.63961,377.665536 209.63961,364.13456 L209.63961,284.523154 L209.63961,284.523154 Z" id="Rectangle" fill="#FFB677"></path>
                <path d="M207.693434,1.17662351 L425.193434,1.17662351 C438.724411,1.17662351 449.693434,12.1456471 449.693434,25.6766235 L449.693434,138.176624 L449.693434,138.176624 L207.693434,138.176624 L207.693434,1.17662351 Z" id="Rectangle" fill="#FF5069"></path>
                <path d="M371.217821,0.927886168 L425.717821,0.927886168 C439.248797,0.927886168 450.217821,11.8969098 450.217821,25.4278862 L450.217821,88.9278862 L450.217821,88.9278862 C406.587326,88.9278862 371.217821,53.5583814 371.217821,9.92788617 L371.217821,0.927886168 L371.217821,0.927886168 Z" id="Rectangle" fill-opacity="0.66" fill="#FFFFFF"></path>
                <path d="M393.177976,1.0535175 L425.677976,1.0535175 C439.208952,1.0535175 450.177976,12.0225411 450.177976,25.5535175 L450.177976,64.0535175 L450.177976,64.0535175 C418.697745,64.0535175 393.177976,38.5337482 393.177976,7.0535175 L393.177976,1.0535175 L393.177976,1.0535175 Z" id="Rectangle" fill="#FFFFFF"></path>
                <rect id="Rectangle" fill="#6F47FF" x="0.590837072" y="0.372583002" width="198" height="297" rx="24.5"></rect>
                <rect id="Rectangle" fill="#7957F7" x="15.7372837" y="25.7103717" width="167" height="25" rx="12.5"></rect>
                <rect id="Rectangle" fill="#7957F7" x="16.4443905" y="63.1870311" width="167" height="25" rx="12.5"></rect>
                <rect id="Rectangle" fill="#7957F7" x="15.7372837" y="100.663691" width="167" height="25" rx="12.5"></rect>
                <rect id="Rectangle" fill="#7957F7" x="16.4443905" y="138.14035" width="167" height="25" rx="12.5"></rect>
                <rect id="Rectangle" fill="#7957F7" x="16.4443905" y="176.324116" width="167" height="25" rx="12.5"></rect>
                <rect id="Rectangle" fill-opacity="0.68" fill="#F8F8F8" x="271.691649" y="27.5240802" width="44" height="44"></rect>
                <rect id="Rectangle" fill-opacity="0.68" fill="#F8F8F8" x="293.611959" y="49.4443905" width="44" height="44"></rect>
            </g>
        </g>
    </g>
</svg>