<?xml version="1.0" encoding="UTF-8"?>
<svg width="213px" height="199px" viewBox="0 0 213 199" version="1.1" xmlns="http://www.w3.org/2000/svg" xmlns:xlink="http://www.w3.org/1999/xlink">
    <!-- Generator: Sketch 59.1 (86144) - https://sketch.com -->
    <title>Illustration 5</title>
    <desc>Created with Sketch.</desc>
    <defs>
        <path d="M38.9445376,19.4399866 C38.9445376,20.8137288 38.8016989,22.1549778 38.5284971,23.4492921 C36.6790063,32.2621823 28.8499954,35.2696127 19.4714552,35.2696127 C8.71858901,35.2696127 4.26325641e-14,30.1771991 4.26325641e-14,19.4399866 C4.26325641e-14,8.70277422 8.71858901,5.68434189e-14 19.4714552,5.68434189e-14 C26.8645366,5.68434189e-14 33.2960781,4.11220072 36.5940263,10.172191 C38.0927485,12.9268961 38.9445376,16.0841565 38.9445376,19.4399866" id="path-1"></path>
    </defs>
    <g id="App" stroke="none" stroke-width="1" fill="none" fill-rule="evenodd">
        <g id="Template" transform="translate(-778.000000, -132.000000)">
            <g id="Group" transform="translate(265.000000, 89.000000)">
                <g id="Illustration-5">
                    <g transform="translate(511.000000, 45.000000)">
                        <g id="Background">
                            <g id="Group-55" transform="translate(120.038524, 42.986952)">
                                <path d="M54.6499197,10.3717329 L54.3927713,10.3717329 C50.8398028,10.3717329 47.9594211,7.50063794 47.9594211,3.95894657 L47.9594211,0.144450608 L61.0832699,0.144450608 L61.0832699,3.95894657 C61.0832699,7.50063794 58.2030332,10.3717329 54.6499197,10.3717329" id="Fill-1" fill="#DCEEFF"></path>
                                <polygon id="Fill-4" fill="#B6D4FF" points="7.1539747 114.067243 4.18444624 114.067243 4.18444624 106.90121 8.68584899 106.90121"></polygon>
                                <polygon id="Fill-6" fill="#ECF6FF" points="1.21471485 106.901253 52.7921163 106.901253 52.7921163 12.2551104 1.21471485 12.2551104"></polygon>
                                <polygon id="Fill-8" fill="#ECF6FF" points="4.18440276 114.067243 1.21472935 114.067243 1.21472935 106.90121 5.57697622 106.90121"></polygon>
                                <polygon id="Fill-9" fill="#CCE3FF" points="55.1796253 114.067243 52.7920873 114.067243 52.7920873 106.90121 56.2992503 106.90121"></polygon>
                                <polygon id="Fill-10" fill="#ECF6FF" points="49.8225588 114.067243 52.7920873 114.067243 52.7920873 106.90121 48.4299854 106.90121"></polygon>
                                <polygon id="Fill-11" fill="#B6D4FF" points="25.2321787 114.067243 22.2625053 114.067243 22.2625053 106.90121 26.3462954 106.90121"></polygon>
                                <polygon id="Fill-12" fill="#B6D4FF" points="68.135313 114.067243 65.4001752 114.067243 64.3740455 106.90121 68.135313 106.90121"></polygon>
                                <polygon id="Fill-13" fill="#CCE3FF" points="70.8703348 114.067243 68.1353419 114.067243 67.2374966 106.90121 70.8703348 106.90121"></polygon>
                                <polygon id="Fill-14" fill="#C5E0FC" points="22.2624618 114.067243 19.2929333 114.067243 18.1788166 106.90121 22.2624618 106.90121"></polygon>
                                <polygon id="Fill-15" fill="#B6D4FF" points="3.39583829 66.6339661 50.6109929 66.6339661 50.6109929 49.9072012 3.39583829 49.9072012"></polygon>
                                <polygon id="Fill-16" fill="#CCE3FF" points="3.39583829 66.6339661 18.002422 66.6339661 18.002422 49.9072012 3.39583829 49.9072012"></polygon>
                                <polygon id="Fill-17" fill="#B6D4FF" points="3.39583829 84.9709716 50.6109929 84.9709716 50.6109929 68.2440622 3.39583829 68.2440622"></polygon>
                                <polygon id="Fill-18" fill="#CCE3FF" points="3.39583829 84.9709716 18.002422 84.9709716 18.002422 68.2440622 3.39583829 68.2440622"></polygon>
                                <polygon id="Fill-19" fill="#B6D4FF" points="3.39583829 103.308122 50.6109929 103.308122 50.6109929 86.5812123 3.39583829 86.5812123"></polygon>
                                <polygon id="Fill-20" fill="#CCE3FF" points="3.39583829 103.308122 18.002422 103.308122 18.002422 86.5812123 3.39583829 86.5812123"></polygon>
                                <polygon id="Fill-21" fill="#B6D4FF" points="3.39583829 30.6174024 50.6109929 30.6174024 50.6109929 13.8906375 3.39583829 13.8906375"></polygon>
                                <polygon id="Fill-22" fill="#CCE3FF" points="3.39583829 30.6174024 18.002422 30.6174024 18.002422 13.8906375 3.39583829 13.8906375"></polygon>
                                <polygon id="Fill-23" fill="#B6D4FF" points="3.39583829 48.2969605 50.6109929 48.2969605 50.6109929 32.3420823 3.39583829 32.3420823"></polygon>
                                <polygon id="Fill-24" fill="#CCE3FF" points="3.39583829 48.2969605 18.002422 48.2969605 18.002422 32.3420823 3.39583829 32.3420823"></polygon>
                                <polygon id="Fill-25" fill="#CCE3FF" points="52.7921163 106.901253 70.8703493 106.901253 70.8703493 12.2551104 52.7921163 12.2551104"></polygon>
                                <polygon id="Fill-26" fill="#E6F4FF" points="0 12.2551104 51.0855724 12.2551104 51.0855724 9.18461386 0 9.18461386"></polygon>
                                <polygon id="Fill-27" fill="#CCE3FF" points="51.0855724 12.2551104 72.0541889 12.2551104 72.0541889 9.18461386 51.0855724 9.18461386"></polygon>
                                <path d="M44.1728882,80.5460609 L44.1728882,80.5462054 C44.1728882,81.3607179 43.5104482,82.0210553 42.6931973,82.0210553 L30.8055165,82.0210553 L30.8055165,79.0712111 L42.6931973,79.0712111 C43.5104482,79.0712111 44.1728882,79.7315485 44.1728882,80.5460609" id="Fill-28" fill="#CCE3FF"></path>
                                <path d="M36.0815102,80.5460609 L36.0815102,80.5462054 C36.0815102,81.0178337 35.6979618,81.4000202 35.2249768,81.4000202 L30.8233024,81.4000202 C30.8134455,81.4000202 30.805618,81.3920731 30.805618,81.3822475 L30.805618,79.7100189 C30.805618,79.7001933 30.8134455,79.6922462 30.8233024,79.6922462 L35.2249768,79.6922462 C35.6979618,79.6922462 36.0815102,80.0744327 36.0815102,80.5460609" id="Fill-29" fill="#DCEEFF"></path>
                                <path d="M45.8520358,82.0210553 L45.8520358,84.9710439 L32.863429,84.9710439 C32.0463231,84.9710439 31.3837382,84.3107065 31.3837382,83.4960496 C31.3837382,82.6813926 32.0463231,82.0210553 32.863429,82.0210553 L45.8520358,82.0210553 Z" id="Fill-30" fill="#CCE3FF"></path>
                                <path d="M45.8520358,82.6503842 L45.8520358,84.341686 L40.5346867,84.341686 C40.0661953,84.341686 39.6864157,83.9631118 39.6864157,83.4961074 C39.6864157,83.0289584 40.0661953,82.6503842 40.5346867,82.6503842 L45.8520358,82.6503842 Z" id="Fill-31" fill="#DCEEFF"></path>
                                <path d="M45.7968228,76.1212081 L45.7968228,79.0711967 L33.6605458,79.0711967 C32.8434399,79.0711967 32.180855,78.4108593 32.180855,77.5962024 C32.180855,76.7815454 32.8434399,76.1212081 33.6605458,76.1212081 L45.7968228,76.1212081 Z" id="Fill-32" fill="#CCE3FF"></path>
                                <path d="M45.7968228,76.7505515 L45.7968228,78.4418533 L41.3318035,78.4418533 C40.863312,78.4418533 40.4833875,78.0632791 40.4833875,77.5962746 C40.4833875,77.1291257 40.863312,76.7505515 41.3318035,76.7505515 L45.7968228,76.7505515 Z" id="Fill-33" fill="#DCEEFF"></path>
                                <polygon id="Fill-34" fill="#DCEEFF" points="14.6161507 66.6666217 22.7535806 66.6666217 22.7535806 55.3260135 14.6161507 55.3260135"></polygon>
                                <polygon id="Fill-35" fill="#DCEEFF" points="14.6161507 54.9254763 22.7535806 54.9254763 22.7535806 54.2246806 14.6161507 54.2246806"></polygon>
                                <path d="M23.06126,56.8877042 L14.3083553,56.8877042 C13.8242088,56.8877042 13.4318182,56.4964146 13.4318182,56.0138047 L13.4318182,55.7992312 C13.4318182,55.3166214 13.8242088,54.9254763 14.3083553,54.9254763 L23.06126,54.9254763 C23.5454065,54.9254763 23.9377971,55.3166214 23.9377971,55.7992312 L23.9377971,56.0138047 C23.9377971,56.4964146 23.5454065,56.8877042 23.06126,56.8877042" id="Fill-36" fill="#E6F4FF"></path>
                                <polygon id="Fill-37" fill="#ECF6FF" points="8.17076931 103.308122 20.740024 103.308122 20.740024 94.5221667 8.17076931 94.5221667"></polygon>
                                <polygon id="Fill-38" fill="#CCE3FF" points="20.740024 103.308122 30.006066 103.308122 30.006066 94.5221667 20.740024 94.5221667"></polygon>
                                <path d="M18.2723989,98.9151297 L10.7543576,98.9151297 C10.7543576,98.1459884 11.3796894,97.522497 12.1512797,97.522497 L16.8753319,97.522497 C17.6469222,97.522497 18.2723989,98.1459884 18.2723989,98.9151297" id="Fill-39" fill="#CCE3FF"></path>
                                <polygon id="Fill-40" fill="#ECF6FF" points="26.044762 103.308122 38.6140167 103.308122 38.6140167 94.5221667 26.044762 94.5221667"></polygon>
                                <polygon id="Fill-41" fill="#CCE3FF" points="38.6138718 103.308122 47.8799138 103.308122 47.8799138 94.5221667 38.6138718 94.5221667"></polygon>
                                <path d="M36.1463336,98.9151297 L28.6282924,98.9151297 C28.6282924,98.1459884 29.2536241,97.522497 30.0252145,97.522497 L34.7492666,97.522497 C35.520857,97.522497 36.1463336,98.1459884 36.1463336,98.9151297" id="Fill-42" fill="#CCE3FF"></path>
                                <polygon id="Fill-43" fill="#ECF6FF" points="11.5655929 30.6174024 24.1348476 30.6174024 24.1348476 21.8315919 11.5655929 21.8315919"></polygon>
                                <polygon id="Fill-44" fill="#CCE3FF" points="24.1348476 30.6174024 33.4008896 30.6174024 33.4008896 21.8315919 24.1348476 21.8315919"></polygon>
                                <path d="M21.667208,26.2245839 L14.1491667,26.2245839 L14.1491667,26.2245839 C14.1491667,25.4554425 14.7744985,24.8319511 15.5460888,24.8319511 L20.270141,24.8319511 C21.0417313,24.8319511 21.667208,25.4554425 21.667208,26.2245839 Z" id="Fill-45" fill="#CCE3FF"></path>
                                <path d="M38.228352,46.0945403 L39.3856651,34.85161 L43.0048775,34.85161 L44.1623355,46.0945403 C44.2835171,47.2725995 43.3561012,48.2969172 42.1679129,48.2969172 L40.2226297,48.2969172 C39.0345864,48.2969172 38.1070255,47.2725995 38.228352,46.0945403" id="Fill-46" fill="#CCE3FF"></path>
                                <polygon id="Fill-47" fill="#DCEEFF" points="10.1551901 84.9709716 13.0722452 84.9709716 13.0722452 73.8631432 10.1551901 73.8631432"></polygon>
                                <polygon id="Fill-48" fill="#ECF6FF" points="7.23799006 84.9709716 10.1550452 84.9709716 10.1550452 73.8631432 7.23799006 73.8631432"></polygon>
                                <polygon id="Fill-49" fill="#ECF6FF" points="13.0722452 84.9709716 15.9893003 84.9709716 15.9893003 73.8631432 13.0722452 73.8631432"></polygon>
                                <path d="M23.6747635,84.9710439 L15.9893003,84.9710439 L15.9893003,73.8632155 L23.6747635,73.8632155 C24.0852733,73.8632155 24.4180878,74.1949736 24.4180878,74.6041805 L24.4180878,84.2299344 C24.4180878,84.6392857 24.0852733,84.9710439 23.6747635,84.9710439" id="Fill-50" fill="#DCEEFF"></path>
                                <polygon id="Fill-51" fill="#CCE3FF" points="17.2383693 76.581219 23.1691638 76.581219 23.1691638 75.4814755 17.2383693 75.4814755"></polygon>
                                <polygon id="Fill-52" fill="#CCE3FF" points="18.5597703 78.2780116 21.8476178 78.2780116 21.8476178 77.1782681 18.5597703 77.1782681"></polygon>
                                <path d="M33.2253213,67.5469656 L33.2253213,67.5469656 C29.6722079,67.5469656 26.7919711,64.6757262 26.7919711,61.1340348 L26.7919711,59.2930373 L39.6586715,59.2930373 L39.6586715,61.1340348 C39.6586715,64.6757262 36.7784347,67.5469656 33.2253213,67.5469656" id="Fill-53" fill="#ECF6FF"></path>
                                <path d="M39.9573348,43.1842008 C39.9573348,45.3445299 38.8124878,47.2400017 37.0950723,48.296975 L30.7905863,48.296975 C29.0731708,47.2400017 27.9283238,45.3445299 27.9283238,43.1842008 C27.9283238,42.1789563 28.1764851,41.2323764 28.6138115,40.4011027 L39.2718471,40.4011027 C39.7091735,41.2323764 39.9573348,42.1789563 39.9573348,43.1842008" id="Fill-54" fill="#DCEEFF"></path>
                            </g>
                            <g id="Background-Object-/-Chair-/-5" transform="translate(45.025242, 126.824159) scale(-1, 1) translate(-45.025242, -126.824159) translate(3.025242, 94.824159)">
                                <g id="Group-14" transform="translate(0.000000, 0.072247)">
                                    <polygon id="Fill-1" fill="#B6D4FF" points="69.6958302 49.2160721 75.1669754 62.0331195 77.6480088 62.0331195 74.3565374 48.5878124"></polygon>
                                    <polygon id="Fill-2" fill="#B6D4FF" points="41.7467634 49.2160721 47.2177637 62.0331195 49.6987971 62.0331195 46.4073257 48.5878124"></polygon>
                                    <polygon id="Fill-3" fill="#B6D4FF" points="0 62.033134 2.48103334 62.033134 7.95203366 49.2160866 3.29147138 48.5878268"></polygon>
                                    <polygon id="Fill-4" fill="#B6D4FF" points="27.9490667 62.033134 30.4301001 62.033134 35.9012454 49.2160866 31.2405381 48.5878268"></polygon>
                                    <path d="M3.05086217,19.2206006 L3.05086217,50.2550126 L35.4064882,50.3239362 L40.7273162,19.6246057 L3.05086217,19.2206006 Z M5.51508084,21.7035847 L37.8063473,22.0497922 L33.3321959,47.8632041 L5.51508084,47.8039616 L5.51508084,21.7035847 Z" id="Fill-5" fill="#B6D4FF"></path>
                                    <polygon id="Fill-6" fill="#CCE3FF" points="45.5094514 0.14440726 36.812354 50.3239795 74.7539289 50.3239795 83.4513162 0.14440726"></polygon>
                                    <polygon id="Fill-7" fill="#DCEEFF" points="35.3068033 0.14440726 26.609561 50.3239795 64.0910518 50.3239795 72.7882941 0.14440726"></polygon>
                                    <path d="M26.0136114,50.3239795 L70.6295951,50.3239795 C72.9074029,50.3239795 74.7539724,48.483271 74.7539724,46.2125485 L74.7539724,36.7372128 C74.7539724,34.4664903 72.9074029,32.6257817 70.6295951,32.6257817 L26.0136114,32.6257817 C23.7356587,32.6257817 21.8890892,34.4664903 21.8890892,36.7372128 L21.8890892,46.2125485 C21.8890892,48.483271 23.7356587,50.3239795 26.0136114,50.3239795" id="Fill-8" fill="#CCE3FF"></path>
                                    <polygon id="Fill-10" fill="#DCEEFF" points="2.8832808 50.3239217 42.3983318 50.3239217 42.3983318 32.6257239 2.8832808 32.6257239"></polygon>
                                    <path d="M42.3983753,19.2206006 L42.3983753,50.2550126 L74.7540014,50.3239362 L80.0749743,19.6246057 L42.3983753,19.2206006 Z M44.862594,21.7035847 L77.1538605,22.0497922 L72.6797091,47.8632041 L44.862594,47.8039616 L44.862594,21.7035847 Z" id="Fill-12" fill="#B6D4FF"></path>
                                </g>
                            </g>
                            <g id="Background-Object-/-Pluteus-/-2" transform="translate(37.298186, 33.715946) scale(-1, 1) translate(-37.298186, -33.715946) translate(0.798186, 22.215946)">
                                <g id="Group-21" transform="translate(0.036239, 0.144494)">
                                    <path d="M66.7534516,5.27280122 C66.2491565,9.49202475 62.6464688,12.7653908 58.2774091,12.7653908 C53.9083494,12.7653908 50.3056617,9.49202475 49.8013666,5.27280122 L66.7534516,5.27280122 Z" id="Fill-1" fill="#ECF6FF"></path>
                                    <g id="Group-5" transform="translate(16.959623, 0.133512)" fill="#ECF6FF">
                                        <path d="M16.9777419,0.0109526419 C16.4734468,4.23017617 12.8707591,7.50354227 8.50155443,7.50354227 C4.13263967,7.50354227 0.529951969,4.23017617 0.025656865,0.0109526419 L16.9777419,0.0109526419 Z" id="Fill-3"></path>
                                    </g>
                                    <path d="M33.9373645,5.27280122 C33.4330694,9.49202475 29.8303817,12.7653908 25.4611771,12.7653908 C21.0922623,12.7653908 17.4895746,9.49202475 16.9852795,5.27280122 L33.9373645,5.27280122 Z" id="Fill-6" fill="#ECF6FF"></path>
                                    <polygon id="Fill-8" fill="#DCEEFF" points="39.2563516 6.46106172 46.1771822 6.46106172 44.313653 12.5717111 41.1198807 12.5717111"></polygon>
                                    <polygon id="Fill-10" fill="#DCEEFF" points="5.71620457 6.46106172 12.6370352 6.46106172 10.7735061 12.5717111 7.57973371 12.5717111"></polygon>
                                    <polygon id="Fill-12" fill="#DCEEFF" points="39.2563516 2.47075996 46.1771822 2.47075996 44.313653 8.58155388 41.1198807 8.58155388"></polygon>
                                    <polygon id="Fill-14" fill="#DCEEFF" points="0 14.0271843 61.3413606 14.0271843 61.3413606 11.4586597 0 11.4586597"></polygon>
                                    <polygon id="Fill-16" fill="#CCE3FF" points="61.3413606 14.0271843 71.432626 14.0271843 71.432626 11.4586597 61.3413606 11.4586597"></polygon>
                                    <polygon id="Fill-17" fill="#B6D4FF" points="14.9506466 14.0272421 19.7409428 21.5186758 19.7409428 14.0272421"></polygon>
                                    <polygon id="Fill-18" fill="#CCE3FF" points="12.2997127 14.0272421 17.0900088 21.5186758 19.7409283 21.5186758 14.9506321 14.0272421"></polygon>
                                    <polygon id="Fill-19" fill="#B6D4FF" points="50.0841719 14.0272421 54.874468 21.5186758 54.874468 14.0272421"></polygon>
                                    <polygon id="Fill-20" fill="#CCE3FF" points="47.4332379 14.0272421 52.2235341 21.5186758 54.8744536 21.5186758 50.0841574 14.0272421"></polygon>
                                </g>
                            </g>
                            <g id="Group-8" transform="translate(121.451826, 0.000000)">
                                <polygon id="Fill-1" fill="#DCEEFF" points="2.16905601 29.9716589 37.5157362 29.9716589 37.5157362 0.0903087229 2.16905601 0.0903087229"></polygon>
                                <polygon id="Stroke-2" stroke="#DCEEFF" stroke-width="2.5" points="2.16905601 29.9716589 37.5157362 29.9716589 37.5157362 0.0903087229 2.16905601 0.0903087229"></polygon>
                                <polygon id="Fill-4" fill="#FFFFFF" points="0.0905962748 30.011756 35.4372765 30.011756 35.4372765 0.130405796 0.0905962748 0.130405796"></polygon>
                                <polygon id="Stroke-5" stroke="#DCEEFF" stroke-width="2.5" points="0.0905962748 30.011756 35.4372765 30.011756 35.4372765 0.130405796 0.0905962748 0.130405796"></polygon>
                                <polygon id="Fill-7" fill="#DCEEFF" points="6.11089993 23.8384323 28.9134387 23.8384323 28.9134387 6.22353533 6.11089993 6.22353533"></polygon>
                            </g>
                            <g id="Group-8" transform="translate(189.217840, 11.198282)">
                                <polygon id="Fill-1" fill="#DCEEFF" points="1.4250794 19.099753 24.1203522 19.099753 24.1203522 0.0901281054 1.4250794 0.0901281054"></polygon>
                                <polygon id="Stroke-2" stroke="#DCEEFF" stroke-width="2.5" points="1.4250794 19.099753 24.1203522 19.099753 24.1203522 0.0901281054 1.4250794 0.0901281054"></polygon>
                                <polygon id="Fill-4" fill="#FFFFFF" points="0.0905962748 19.1254007 22.7856879 19.1254007 22.7856879 0.115775783 0.0905962748 0.115775783"></polygon>
                                <polygon id="Stroke-5" stroke="#DCEEFF" stroke-width="2.5" points="0.0905962748 19.1254007 22.7856879 19.1254007 22.7856879 0.115775783 0.0905962748 0.115775783"></polygon>
                                <polygon id="Fill-7" fill="#DCEEFF" points="3.95597694 15.198055 18.5968785 15.198055 18.5968785 3.99200679 3.95597694 3.99200679"></polygon>
                            </g>
                        </g>
                        <g id="Person-/-Man-/-5" transform="translate(32.000000, 46.000000)">
                            <g id="Group-23" transform="translate(33.787611, 0.000000)">
                                <g id="Face-color" transform="translate(0.000000, 4.531032)" fill="#E576C6" fill-rule="nonzero">
                                    <path d="M12.9164327,20.8149986 L12.7597436,15.5008718 C12.7597436,15.5008718 19.3332689,16.0150482 20.7393512,15.2974347 C20.7393512,15.2974347 22.4579877,6.59883944 20.4081788,1.78173358 L20.3666587,1.59415713 L6.49498306,0 L5.86480875,8.02432342 C5.3975426,6.67050369 1.39360977,4.93055806 0.385593434,6.86944155 C-1.79899117,11.0707334 6.01206448,13.8995936 6.01206448,13.8995936 L5.2188983,20.8789267" id="Face"></path>
                                </g>
                                <polygon id="Fill-4" fill="#000000" opacity="0.403343564" points="12.759793 20.0318386 8.32719032 19.0981642 12.7385387 22.025587"></polygon>
                                <polygon id="Fill-6" fill="#405FD3" points="16.4161013 11.3477607 17.9477325 15.0264603 16.1121147 15.0494421"></polygon>
                                <path d="M14.6696858,12.393107 C14.7609642,12.8885095 14.4260022,13.3627106 13.9218293,13.4522099 C13.4174916,13.5418712 12.9347378,13.2130055 12.8436242,12.7176029 C12.7523458,12.2222004 13.0873077,11.7481612 13.5914807,11.6585 C14.0958184,11.5688387 14.5785722,11.8977044 14.6696858,12.393107" id="Fill-8" fill="#0D0B6D"></path>
                                <path d="M19.4872229,12.393107 C19.5785013,12.8885095 19.2435393,13.3627106 18.7393664,13.4522099 C18.2350287,13.5418712 17.7522749,13.2130055 17.6611613,12.7176029 C17.5698829,12.2222004 17.9048448,11.7481612 18.4090178,11.6585 C18.9133555,11.5688387 19.3961093,11.8977044 19.4872229,12.393107" id="Fill-10" fill="#0D0B6D"></path>
                                <path d="M7.18246405,14.5333881 C7.15688412,14.4716819 7.12843752,14.4078436 7.09702485,14.3418144 C6.03801614,12.1157859 4.39535415,11.1803947 3.31637962,10.7922236 C2.72676949,9.93539542 2.26193505,8.97717457 2.10759113,7.96795337 C1.61824682,4.77478382 2.47385794,1.85626245 4.38279505,1.01985595 C6.31512843,0.173091477 10.8922278,0.597606618 16.0316612,0.597606618 C22.2025072,0.597606618 22.542412,8.09216816e-05 22.542412,8.09216816e-05 C22.542412,8.09216816e-05 27.9820425,7.53939215 17.9391154,7.32025624 C12.676275,7.20534745 9.68155369,7.33498398 9.68155369,7.33498398 L7.18246405,14.5333881 Z" id="Hair" fill="#19141E" fill-rule="nonzero"></path>
                                <g id="Group-22" transform="translate(13.505486, 15.322805)">
                                    <path d="M1.72694623,2.07030696 C1.72694623,2.07030696 2.67202333,2.83194183 3.84513159,2.34382224" id="Fill-19" fill="#FFFFFF"></path>
                                    <path d="M1.72694623,2.07030696 C1.72694623,2.07030696 2.67202333,2.83194183 3.84513159,2.34382224" id="Stroke-21" stroke="#252535" stroke-width="2"></path>
                                    <path d="M0.131453099,1.27546183 C0.131453099,1.27546183 0.64254605,-0.0369259981 3.06323516,0.0614747667 C5.48392428,0.159713688 5.78412136,1.7859158 5.78412136,1.7859158 L0.131453099,1.27546183 Z" id="Fill-17" fill="#19141E"></path>
                                </g>
                            </g>
                            <g id="Group-18" transform="translate(0.000000, 56.082185)">
                                <g id="Shoes" transform="translate(0.000000, 62.215418)" fill="#0D0B6D" fill-rule="nonzero">
                                    <path d="M66.2461776,20.848407 L67.5255985,24.9215885 C67.5255985,24.9215885 77.5163815,20.8724722 82.6555975,22.4088493 L65.33759,32.3175857 L60.8290667,21.1310381 L66.2461776,20.848407 Z M14.094868,5.21601009 L8.25704991,10.0259867 C8.25704991,10.0259867 8.92731041,13.4365592 9.1260697,16.6332585 C9.41353453,21.2604839 8.90356972,25.4022423 8.90356972,25.4022423 L7.36145526e-05,8.22995812 L12.395476,0 L14.094868,5.21601009 Z"></path>
                                </g>
                                <g id="Leg-skin" transform="translate(5.153019, 62.206914)" fill="#E576C6" fill-rule="nonzero">
                                    <path d="M55.5945383,21.1170151 L60.7663287,19.7357052 L62.3725982,24.9300023 L57.9397139,26.7560672 L55.5945383,21.1170151 Z M7.16089241,3.97903932e-13 L7.46952142,6.45093807 L3.10399442,10.034491 L0.0217531003,4.83386095 L7.16089241,3.97903932e-13 Z" id="Skin"></path>
                                </g>
                                <g id="Pants" transform="translate(4.957965, 0.000000)" fill="#19141E" fill-rule="nonzero">
                                    <path d="M29.785743,19.7928744 C28.3579895,15.1460372 27.3495127,11.685484 27.0180622,10.1742866 C25.5444829,3.45537372 25.5476115,0.244199092 25.5476115,3.61883657e-05 L30.6564013,3.61883657e-05 L49.9029311,3.61883657e-05 C49.7981726,1.79725762 50.101477,6.56331309 49.4159722,13.1623977 L64.3602367,79.0016011 L65.8683816,78.7418668 L67.180377,83.8592636 L50.8342656,87.0812947 L48.8428079,81.6740291 L49.8193318,81.5058512 C47.6376232,75.0200512 42.8729089,60.6223431 38.249932,46.3793721 C37.6730359,47.3282091 37.0675955,48.280357 36.4322041,49.2346696 C27.817683,62.172674 19.2195488,69.6584459 14.5094062,73.1752523 L15.2055951,74.1586465 L10.480645,77.1273591 L0.0897668668,62.526801 L4.67411313,59.2825141 L5.44715846,60.374471 C11.0389171,55.2945755 22.2090946,43.34978 28.7943262,24.1593891 C29.2356839,22.8738991 29.5541684,21.3938603 29.785743,19.7928744 L29.785743,19.7928744 Z"></path>
                                </g>
                                <g id="Overlay" transform="translate(30.505576, 0.000109)" fill="#FFFFFF" fill-opacity="0.1">
                                    <path d="M20.8807679,2.84217094e-13 L38.812,79.001 L40.3207701,78.7417582 L41.6327655,83.859155 L25.2866541,87.0811862 L23.2951964,81.6739206 L24.2715547,81.5053028 C19.5919805,67.5937515 3.03064272,17.2876338 1.47045074,10.1741781 C-0.00312856363,3.45526516 2.67946976e-08,0.244090527 2.67946976e-08,2.84217094e-13 L20.8807679,2.84217094e-13 Z"></path>
                                </g>
                            </g>
                            <g id="Group-36" transform="translate(19.097345, 20.469872)">
                                <g id="Skin-color" transform="translate(0.000000, 3.585785)" fill="#E576C6" fill-rule="nonzero">
                                    <path d="M52.3738331,11.9208056 C50.347234,15.8508463 43.2330997,28.7517888 38.1613801,26.6941251 C34.3641301,25.1533435 29.8182274,12.3797847 29.8182274,12.3797847 L37.2076146,8.03653305 L40.5279819,16.8146249 L47.3077833,9.54032833 C47.0775697,8.09889263 46.8931663,6.21463955 47.352106,5.55038661 C48.1334445,4.41977097 52.0865949,0.936335346 52.0865949,0.936335346 L52.8063534,6.83839852 L52.932077,6.34085055 C52.93195,6.31314235 52.9387082,6.28315223 52.9529533,6.25073367 C52.9543224,6.24762129 52.9557431,6.24449936 52.9572149,6.24136802 L53.2482359,5.08966034 C53.1260654,5.02876738 53.0760743,4.94198527 53.1288876,4.82185979 C53.1717549,4.72435677 53.2652446,4.61749231 53.3959288,4.50516976 L54.3895327,0.573009459 C54.3895327,0.573009459 54.7155972,0.716250221 55.1936469,0.930870208 C55.9625621,0.774269288 58.747026,2.64376697 58.789277,2.67217318 L58.7898181,2.67251817 C59.3568624,3.03418536 58.008296,9.01179046 56.9129531,10.1222133 C56.1336895,10.9122011 53.7088964,11.5933606 52.3738331,11.9208056 L52.3738331,11.9208056 Z M7.10382863,38.5756747 L7.55647058,39.4242694 C7.55647058,39.4242694 7.96614535,40.1176752 8.39510111,41.3279802 C8.82387323,42.538105 8.64575376,43.2785672 9.57344403,45.1793933 C10.6265524,47.3371366 8.74289314,46.447392 8.06750819,45.5055428 C7.54031128,44.7703091 7.60017412,43.7767159 6.91670951,43.3313929 C6.687725,43.692339 6.16438429,44.2083367 5.87241527,47.3216314 C5.82008119,47.8799979 6.07642633,49.6912186 6.07642633,49.6912186 C6.08193518,50.2338997 6.15244845,51.3655971 5.52682677,51.5383175 C5.37184447,51.5812272 5.17003695,51.4119323 5.17003695,51.4119323 C5.17003695,51.4119323 5.23063429,52.1201221 4.59142412,52.261111 C4.34003695,52.3164609 3.84075155,50.7873983 3.84075155,50.7873983 C3.84075155,50.7873983 3.76472942,51.5639191 3.2872958,51.6502793 C3.15232898,51.6746188 1.55880243,47.2444661 1.55880243,47.2444661 L1.65465642,48.2450907 L1.86619624,49.2698745 C1.86619624,49.2698745 1.84911881,49.8215702 1.40051482,49.9191086 C1.22239535,49.9578715 0.880479425,49.0378378 0.560048009,47.9553603 C0.0616807522,46.2710657 0.0717803097,45.0054108 0.218499336,43.7467874 C0.395517035,42.225838 0.316740487,41.7148884 1.002225,39.8497602 C1.08419986,39.6266996 1.19422738,39.3705661 1.31710826,39.1072008 C0.940998253,35.9006928 -0.118859248,26.5148139 0.0110360619,23.6333677 C0.168405531,20.1383933 3.91772854,12.3798568 3.91772854,12.3798568 L11.5296732,16.5826603 L7.33413341,24.1325982 L7.10382863,38.5756747 L7.10382863,38.5756747 Z M25.3146327,3.80960632 C20.9057168,3.55359066 19.0455619,0.847396947 18.6213805,0.115408509 C21.4187743,-0.0753411877 21.7111106,-0.0473958163 25.4372965,0.333742991 C26.9485575,0.488434144 28.0084602,0.805929622 29.0349425,1.08358041 C29.2571327,1.82818934 29.5729735,4.05480442 25.3146327,3.80960632 Z" id="Mask"></path>
                                </g>
                                <g id="T-Shirt" transform="translate(3.121681, 3.605854)" fill="#5E93D1" fill-rule="nonzero">
                                    <path d="M15.5465177,0.1511206 C15.5562304,0.188378137 15.5902393,0.243902464 15.6297019,0.306895974 C15.6691645,0.369889484 15.6691645,0.349482206 15.862622,0.631277612 C16.0560796,0.913073019 16.3428277,1.19397259 16.775227,1.62966589 C17.1338752,1.99104628 17.6292936,2.34487068 18.115364,2.613144 C18.6687577,2.91857456 19.2119031,3.12253048 19.5604059,3.26732134 C19.8749334,3.39799661 20.1401173,3.46654128 20.3964393,3.5266682 C21.1204665,3.69650739 21.6841484,3.74911005 22.83402,3.80829255 C22.9735683,3.81547493 23.7815796,3.75640037 23.9236855,3.72850713 C24.1263797,3.68872133 24.307978,3.65277626 24.5371772,3.59104273 C24.7663763,3.5293092 25.3359655,3.26679426 25.7130305,2.80437489 C25.8729656,2.60823613 26.0248949,1.96315019 25.978117,1.48789912 C25.9313391,1.01264804 25.7214909,1.01163922 25.9132611,1.06351069 C29.2865133,1.97038307 32.4744294,3.84005462 34.3380732,7.15563772 C34.4883868,7.42287313 34.6257311,7.68026754 34.7508981,7.92818127 L34.7770551,7.92271112 L37.7801126,14.7412015 L33.493321,17.2079048 L32.5991131,32.0955295 L8.17838296,32.0955295 L7.76889181,17.4142934 L0.0473210177,11.7116347 L0.0598328031,11.6872239 C0.297167364,11.2276941 3.89987427,4.40262902 9.91917942,1.62966589 C11.9335821,0.701158384 13.7809381,0.263011018 15.4996991,0.0953387897 C15.6406164,0.0815971593 15.5294046,0.0854752192 15.5465177,0.1511206 Z"></path>
                                </g>
                                <polyline id="Stroke-16" stroke="#000000" stroke-width="2.5" opacity="0.200520833" points="10.8902243 21.0193725 12.8489876 22.328478 17.5574013 16.9290716"></polyline>
                                <path d="M55.6088505,11.4750857 L55.2677535,13.1234709 L49.7425611,13.1234709 L52.3487978,-3.60585438e-05 L57.8739903,-3.60585438e-05 C57.7307718,0.721129749 57.3934504,2.4196858 56.8620262,5.09563208 L55.7755775,4.59970919 L55.4371921,4.50734033 L55.1708162,4.52206592 L55.0553491,4.59970919 L55.0553491,4.91856672 L56.2364191,6.59146835 L55.3329405,6.97914611 L53.942836,7.69734522 L53.5411939,7.97124025 L53.3855795,8.11317235 L53.2585108,8.22528308 L53.1775237,8.32154777 L53.1288876,8.40764445 L53.1079876,8.5194472 L53.1288876,8.56892206 L53.1530515,8.60696906 L53.1881991,8.64132966 L53.6438347,8.79986965 L54.6832221,8.5194472 L55.7104827,8.5194472 L54.3393225,8.79986965 L53.4358407,9.33226101 L53.1288876,9.61726964 L52.9553956,9.82670146 L52.9553956,10.0183075 L53.2585108,10.1526457 L55.1708162,9.93645459 L54.5376106,10.2757196 L54.1179912,10.5319823 L53.7333401,10.7274168 L53.4358407,11.1054329 L53.4358407,11.291976 L53.5411939,11.4015337 L53.8082757,11.5414188 L54.2155438,11.5414188 L55.0360233,11.5414188 L55.6088505,11.4750857 Z" id="Phone" fill="#5E93D1" fill-rule="nonzero"></path>
                                <polygon id="Fill-23" fill="#020101" points="49.7418633 13.1234709 48.8275779 13.1234709 51.4338146 -3.60585438e-05 52.3479164 -3.60585438e-05"></polygon>
                                <path d="M53.2994783,1.52372588 C53.2230889,1.9070282 52.9966752,2.18630163 52.7937659,2.14717811 C52.5910403,2.10823488 52.488392,1.76585901 52.5647814,1.38255669 C52.6411708,0.999074072 52.8675845,0.719980943 53.0704938,0.758924171 C53.2734031,0.798047691 53.3758677,1.14042356 53.2994783,1.52372588" id="Fill-34" fill="#020101"></path>
                            </g>
                        </g>
                        <g id="Person-/-Woman-/-4" transform="translate(176.500000, 116.000000) scale(-1, 1) translate(-176.500000, -116.000000) translate(149.000000, 35.000000)">
                            <g id="Group-21" transform="translate(2.350511, 0.000000)">
                                <g id="Hair-color" transform="translate(0.180718, -0.000054)">
                                    <mask id="mask-2" fill="white">
                                        <use xlink:href="#path-1"></use>
                                    </mask>
                                    <use id="Hair" fill="#F6B852" fill-rule="nonzero" xlink:href="#path-1"></use>
                                </g>
                                <path d="M22.9912736,32.3741215 C22.9912736,32.3741215 20.653238,32.4430794 19.656802,31.8995396 L22.8670581,33.9119546 L22.9912736,32.3741215 Z" id="Fill-4" fill="#CF3E83"></path>
                                <g id="Face-color" transform="translate(13.922260, 17.510249)" fill="#E576C6" fill-rule="nonzero">
                                    <path d="M8.28744174,0.107321199 C10.5644028,2.06288852 13.934492,3.88132228 17.8906866,5.11768464 C17.6387574,7.79383174 16.8024808,12.4062927 14.2797542,14.081688 C13.088045,14.8728985 10.9177997,14.9703783 9.06903217,14.8638726 L8.64503608,20.1066578 L3.14972136,17.9579517 C3.14972136,17.9579517 4.52133514,11.5860262 3.78689075,10.4150058 C2.80058003,8.83745872 0.161679019,8.32911995 0.158602947,6.1490037 C0.157520422,5.50329071 0.535591131,4.38534255 1.93161406,4.38317634 C3.80551403,4.38046856 3.53845978,6.62178042 3.53845978,6.62178042 C5.26222494,7.2912523 7.0192959,2.70542831 8.28744174,0.107321199 L8.28744174,0.107321199 Z" id="Face"></path>
                                </g>
                                <polygon id="Fill-9" fill="#2437A8" points="28.0735131 24.1278413 29.4114964 27.3663348 27.8592549 27.3352857"></polygon>
                                <path d="M26.6491032,24.2683385 C26.6156536,24.9153151 26.23469,25.4193214 25.7978565,25.3942294 C25.361023,25.3691374 25.0339403,24.824334 25.0672091,24.1773574 C25.1006586,23.5303808 25.4818031,23.0261939 25.9184558,23.0512859 C26.3552893,23.0765585 26.6825528,23.6213619 26.6491032,24.2683385" id="Fill-11" fill="#1D1D23"></path>
                                <path d="M30.7510348,24.1649558 C30.7175852,24.8119324 30.3366215,25.3159388 29.8997881,25.2908468 C29.4629546,25.2657548 29.1358719,24.7209513 29.1693215,24.0739747 C29.202771,23.4269981 29.5837347,22.9228112 30.0205682,22.9480838 C30.4574017,22.9731758 30.7844844,23.5179792 30.7510348,24.1649558" id="Fill-13" fill="#1D1D23"></path>
                                <path d="M27.4784721,28.8865493 C27.4784721,28.8865493 26.467029,29.2123843 25.453597,28.087396" id="Stroke-15" stroke="#24242B" stroke-width="1.5"></path>
                                <path d="M22.9873862,32.3740313 C22.9873862,32.3740313 20.6493507,32.4429892 19.6529147,31.8996299 L22.8631707,33.9118644 L22.9873862,32.3740313 Z" id="Fill-17" fill="#000000" opacity="0.399018787"></path>
                            </g>
                            <g id="Group-39" transform="translate(1.446469, 35.020498)">
                                <g id="Skin-color" transform="translate(0.171809, 0.097967)" fill="#E576C6" fill-rule="nonzero">
                                    <path d="M42.8664409,13.9572123 C42.7470402,12.7896785 42.7003594,11.3927779 43.0719769,10.892476 C43.753806,9.97436127 47.1249816,7.19889656 47.1249816,7.19889656 L47.304701,9.51502247 L48.102704,6.79596227 C48.102704,6.79596227 48.9864196,7.05744845 49.8419016,7.50432757 C50.6051453,7.90302411 51.3292744,8.47742106 51.6456478,8.70187163 C52.0989349,9.02355476 50.781202,13.9729981 49.8419016,14.8636741 C49.1969462,15.4749943 47.2953084,15.9490351 46.1668234,16.1861013 C44.0114804,19.6612437 38.2671663,28.3441249 35.0937085,27.627779 C31.7968451,26.8836837 28.7381066,15.3778255 28.7381066,15.3778255 L34.2988741,12.6733044 L36.7200816,20.123825 L42.8664409,13.9572123 L42.8664409,13.9572123 Z M5.07982637,39.1723508 L6.43327477,42.6281924 C6.43327477,42.6281924 6.63887994,43.5178797 6.75378416,44.5693645 C6.86852104,45.6208639 6.91259945,46.2604904 7.60998555,47.838217 C8.09599828,48.9376311 6.52320646,48.6092619 6.07718338,47.99506 C5.6173342,47.3616209 5.38474984,44.7651671 4.62766442,45.278933 C3.87057899,45.792699 3.64245445,48.4059011 3.81181801,50.8735505 C3.83836142,51.26112 3.56881806,51.5775285 3.37608328,51.6890558 C3.06344907,51.8697006 2.60724007,50.3426443 2.60724007,50.3426443 C2.60724007,50.3426443 2.44315256,50.879219 1.94532038,50.6551264 C1.76908103,50.5758283 1.24401874,49.5368557 1.24401874,49.5368557 C1.24401874,49.5368557 0.837469502,49.0248379 0.623644296,48.4531234 C0.246186584,47.4437617 -0.0619751219,45.5703781 0.0106853177,45.0199097 C0.182293858,43.7225901 0.568442534,41.532891 1.07604707,40.3198451 C0.77637971,37.2028133 -0.372388742,24.6884847 0.261323866,22.3112468 C0.986602299,19.5911324 2.40776132,15.9050984 2.40776132,15.9050984 L7.86099722,19.1072391 L5.5232248,24.0899892 L5.07982637,39.1723508 L5.07982637,39.1723508 Z M23.9274416,0.320600021 C23.9274416,0.320600021 25.3836738,1.34810865 26.4714182,3.18542116 C27.9600151,5.6989542 27.181815,7.8675173 24.8915129,7.87114306 C22.439568,7.87527957 19.6254635,7.04200835 18.4391785,3.33416801 C17.8390748,1.45858568 17.27224,-1.98951966e-13 17.27224,-1.98951966e-13 L23.9274416,0.320600021 Z" id="Skin"></path>
                                </g>
                                <path d="M50.1182509,7.67245076 C49.6160612,7.38501275 49.1381639,7.16989458 48.9039435,7.22443987 C48.4941574,7.31987092 49.2441759,8.39286977 49.7912439,9.09938807 L49.785064,9.12635513 C48.9020276,9.48107032 47.7448422,10.0070475 47.5588001,10.392098 C47.4288941,10.660964 47.9363201,10.748808 48.5649892,10.760684 C47.9864821,11.0376746 47.4816577,11.337089 47.364232,11.5802677 C47.2137905,11.8916358 47.9181055,11.9602267 48.6756105,11.9492056 C48.0066345,12.2539531 47.3798538,12.6002859 47.2471585,12.874925 C47.0780446,13.2251455 47.9902532,13.2682214 48.8431922,13.2363356 L48.6239614,14.1929774 C48.5568815,14.4863192 48.2892848,14.6899435 47.9880577,14.6767657 L44.7150611,14.5337954 C44.3255994,14.5168267 44.0467926,14.1516387 44.1337615,13.7721898 L46.4528122,3.65271013 C46.520073,3.35936833 46.7874888,3.15574399 47.0885351,3.16892181 L50.3617126,3.31171157 C50.7511742,3.32886078 51.0298002,3.69404876 50.9430121,4.07349765 L50.1182509,7.67245076 L50.1182509,7.67245076 Z" id="Path" fill="#020101"></path>
                                <g id="Phone-color" transform="translate(44.840524, 3.068807)" fill="#5E93D1" fill-rule="nonzero">
                                    <path d="M5.94495836,5.01406012 C5.25051118,4.561857 4.40214568,4.07675071 4.06341937,4.15563336 C3.65000525,4.25190931 4.41702328,5.3431395 4.96520155,6.04925995 C4.07965818,6.40403028 2.90577267,6.93523037 2.71827597,7.32329154 C2.58836995,7.5921575 3.09579598,7.68000148 3.72446508,7.69187749 C3.14595794,7.96886807 2.64113355,8.26828253 2.52370787,8.51146121 C2.3732664,8.82282932 3.07758135,8.89142022 3.83508633,8.8803991 C3.16611037,9.18514656 2.53932967,9.53147944 2.40663432,9.80611847 C2.18269524,10.2698774 3.85483616,10.1950638 4.77466372,10.1207933 L4.53721013,11.1569529 C4.47013015,11.4502947 4.20253348,11.6539191 3.90130641,11.6407413 L0.628309764,11.4979515 C0.238848114,11.4809828 -0.0399586929,11.1156143 0.0470102269,10.7361654 L2.36606088,0.616685694 C2.43332167,0.323343895 2.70073754,0.119900075 3.0017838,0.132897374 L6.27496125,0.275687135 C6.6644229,0.292836348 6.9430489,0.658204841 6.85626079,1.03747322 L5.94495836,5.01406012 Z" id="Phone"></path>
                                </g>
                                <path d="M48.0505632,4.54244739 C47.974262,4.87405901 47.7784463,5.10963504 47.6130065,5.06829641 C47.4477475,5.02695778 47.375424,4.72459008 47.4515445,4.39297846 C47.5278457,4.06118633 47.7238422,3.82579081 47.8891012,3.86712944 C48.054541,3.90846807 48.1268644,4.21083577 48.0505632,4.54244739" id="Fill-20" fill="#020101"></path>
                                <path d="M47.6677553,6.25861425 C47.5914541,6.59022587 47.3956384,6.8258019 47.2301986,6.78446327 C47.0647588,6.74312464 46.9926162,6.44075694 47.0687366,6.10914532 C47.1450378,5.77735318 47.3408535,5.54195767 47.5062933,5.5832963 C47.6717331,5.62463493 47.7440566,5.92700263 47.6677553,6.25861425" id="Fill-22" fill="#020101"></path>
                                <g id="T-shirt-color" transform="translate(1.081036, 0.000000)" fill="#5E93D1" fill-rule="nonzero">
                                    <path d="M18.5564406,0.203630818 L16.3630124,0.0979671348 C16.3630124,0.0979671348 16.9298473,1.55655282 17.5299509,3.43213515 C18.7162359,7.13997548 21.5303404,7.97324671 23.9822853,7.96909479 C26.2725874,7.96548443 27.0507875,5.79692134 25.5621906,3.28338829 C24.6041221,1.66511161 23.3601874,0.675065899 23.0772116,0.462008064 C25.9691796,0.657209794 27.7700027,1.0197194 29.4376233,2.58135367 C32.6128025,5.55466614 35.1839003,11.0359156 36.241088,16.4510955 L30.4387603,19.0362942 L28.3721184,27.009234 L13.1869111,26.7781709 C13.1869111,26.7781709 13.3198054,25.3177801 12.9923611,23.2075243 C12.5658337,20.4474036 11.0260679,18.3876929 11.0260679,18.3876929 L9.49877796,20.7055444 L0,15.114901 C3.10972651,9.45331403 7.44732399,3.61572198 10.339357,1.75819146 C12.3824594,0.445395037 14.2530978,0.115879066 16.0809454,0.0979671348 C16.9121554,0.0898217198 17.7466963,0.146278345 18.5564406,0.203630818 Z" id="T-Shirt"></path>
                                </g>
                                <path d="M29.5210484,27.1478357 C30.1010822,19.7929896 33.9351279,18.0573088 31.0421908,9.80889845" id="Stroke-31" stroke="#000000" stroke-width="1.5" opacity="0.20296224"></path>
                                <path d="M24.0992504,0.418567156 C24.0992504,0.418567156 25.5554826,1.44607578 26.6432269,3.28338829 C28.1318238,5.79692134 27.3536238,7.96548443 25.0633217,7.9691102 C22.6113767,7.97324671 19.7972722,7.13997548 18.6109872,3.43213515 C18.0108836,1.55655282 17.4440487,0.0979671348 17.4440487,0.0979671348" id="Stroke-35" stroke="#000000" stroke-width="1.5" opacity="0.202055432"></path>
                                <line x1="16.0071812" y1="13.2387952" x2="12.4837646" y2="18.56859" id="Stroke-37" stroke="#000000" stroke-width="1.5" opacity="0.20296224"></line>
                            </g>
                            <g id="Group-19" transform="translate(0.000000, 61.737166)">
                                <g id="Shoes" transform="translate(-0.000018, 88.367232)" fill="#0D0B6D" fill-rule="nonzero">
                                    <path d="M5.43954713,0.825705153 L9.6595479,0.73432012 L10.126732,5.4270032 L10.5854508,10.8359759 L2.84217094e-14,10.8359759 C1.41072326,6.34666414 5.48222684,5.64181965 5.48222684,5.64181965 L5.43954713,0.825705153 Z M32.2619659,1.76783378 L31.8277615,5.55124459 C31.8277615,5.55124459 39.9055146,7.66542588 42.9421233,10.8100218 L28.0525468,10.8359055 L28.4479514,-2.84217094e-14 L32.2619659,1.76783378 Z"></path>
                                </g>
                                <g id="Skin-color" transform="translate(5.449512, 87.924956)" fill="#E576C6" fill-rule="nonzero">
                                    <path d="M0.551309027,-5.68434189e-14 L4.66778504,1.44402439 L4.64450519,6.08405983 L-3.55271368e-13,5.86924337 L0.551309027,-5.68434189e-14 Z M22.9107701,1.26523371 L26.9117287,2.85293861 L26.877338,5.99366084 L22.7878454,5.84364148 L22.9107701,1.26523371 Z" id="Skin"></path>
                                </g>
                                <g id="Pants" transform="translate(3.703612, 0.000000)" fill="#2F2F3D" fill-rule="nonzero">
                                    <path d="M0.829344434,90.154082 C1.01805226,84.2853669 2.23671681,47.2136812 3.48889022,25.1580179 C4.35659349,9.87083374 10.850259,1.45425458 12.0689235,1.76079062e-05 L27.5412015,1.76079062e-05 C27.5694195,0.195289288 29.6520837,14.9139142 30.033203,45.7117268 C30.3753461,73.2929271 30.0226212,88.3688164 29.9785306,90.1417565 L29.9785024,90.1426549 L30.4726453,90.1418621 L30.4758198,92.5162883 L22.46385,92.5293181 L22.4606754,90.1547159 L22.7369291,90.1542727 L22.736912,90.154082 L18.6684065,41.8890504 L17.449742,27.4435241 L8.19953134,90.1417565 L8.19947151,90.1421639 L8.59955665,90.14151 L8.45987759,92.5159361 L0.164845985,92.5293181 L0.304525047,90.1550681 L0.829340067,90.1542103 L0.829344434,90.154082 Z"></path>
                                </g>
                                <polygon id="Fill-17" fill="#0A0A0F" opacity="0.398065476" points="21.1533535 27.4440347 22.8180387 13.3129857 22.371489 41.8886806"></polygon>
                            </g>
                        </g>
                    </g>
                </g>
            </g>
        </g>
    </g>
</svg>