<?xml version="1.0" encoding="UTF-8"?>
<svg width="30px" height="25px" viewBox="0 0 30 25" version="1.1" xmlns="http://www.w3.org/2000/svg" xmlns:xlink="http://www.w3.org/1999/xlink">
    <!-- Generator: Sketch 61.1 (89650) - https://sketch.com -->
    <title>twitter</title>
    <desc>Created with Sketch.</desc>
    <g id="Index" stroke="none" stroke-width="1" fill="none" fill-rule="evenodd">
        <g id="Login" transform="translate(-583.000000, -513.000000)" fill="#1DCAFF" fill-rule="nonzero">
            <g id="Google" transform="translate(574.000000, 502.000000)">
                <g id="twitter" transform="translate(9.000000, 11.000000)">
                    <path d="M30,2.885625 C28.884375,3.375 27.695625,3.699375 26.45625,3.856875 C27.73125,3.095625 28.704375,1.899375 29.161875,0.4575 C27.973125,1.16625 26.660625,1.666875 25.261875,1.94625 C24.133125,0.744375 22.524375,0 20.769375,0 C17.364375,0 14.623125,2.76375 14.623125,6.151875 C14.623125,6.639375 14.664375,7.108125 14.765625,7.554375 C9.6525,7.305 5.128125,4.854375 2.08875,1.12125 C1.558125,2.041875 1.246875,3.095625 1.246875,4.23 C1.246875,6.36 2.34375,8.248125 3.97875,9.34125 C2.990625,9.3225 2.02125,9.035625 1.2,8.58375 C1.2,8.6025 1.2,8.626875 1.2,8.65125 C1.2,11.64 3.331875,14.1225 6.1275,14.694375 C5.626875,14.83125 5.08125,14.896875 4.515,14.896875 C4.12125,14.896875 3.72375,14.874375 3.350625,14.791875 C4.1475,17.2275 6.40875,19.018125 9.0975,19.07625 C7.005,20.713125 4.348125,21.699375 1.471875,21.699375 C0.9675,21.699375 0.48375,21.676875 -3.33066907e-15,21.615 C2.724375,23.371875 5.953125,24.375 9.435,24.375 C20.7525,24.375 26.94,15 26.94,6.87375 C26.94,6.601875 26.930625,6.339375 26.9175,6.07875 C28.138125,5.2125 29.16375,4.130625 30,2.885625 Z" id="Path"></path>
                </g>
            </g>
        </g>
    </g>
</svg>